<svg width="24" height="25" viewBox="0 0 24 25" fill="none" xmlns="http://www.w3.org/2000/svg">
<g clip-path="url(#clip0_331_3079)">
<path d="M22 3.125H2C0.9 3.125 0 4.0625 0 5.20833V19.7917C0 20.9375 0.9 21.875 2 21.875H22C23.1 21.875 23.99 20.9375 23.99 19.7917L24 5.20833C24 4.0625 23.1 3.125 22 3.125ZM22 19.7917H2V5.20833H22V19.7917ZM21 6.25H14V11.4583H21V6.25ZM20 8.33333L17.5 10.1562L15 8.33333V7.29167L17.5 9.11458L20 7.29167V8.33333ZM9 12.5C10.65 12.5 12 11.0937 12 9.375C12 7.65625 10.65 6.25 9 6.25C7.35 6.25 6 7.65625 6 9.375C6 11.0937 7.35 12.5 9 12.5ZM9 8.33333C9.55 8.33333 10 8.80208 10 9.375C10 9.94792 9.55 10.4167 9 10.4167C8.45 10.4167 8 9.94792 8 9.375C8 8.80208 8.45 8.33333 9 8.33333ZM15 17.2812C15 14.6771 11.03 13.5521 9 13.5521C6.97 13.5521 3 14.6771 3 17.2812V18.75H15V17.2812ZM5.48 16.6667C6.22 16.1458 7.7 15.625 9 15.625C10.3 15.625 11.77 16.1354 12.52 16.6667H5.48Z" fill="#314022"/>
</g>
<defs>
<clipPath id="clip0_331_3079">
<rect width="24" height="25" fill="white"/>
</clipPath>
</defs>
</svg>
