<svg width="24" height="25" viewBox="0 0 24 25" fill="none" xmlns="http://www.w3.org/2000/svg">
<g clip-path="url(#clip0_331_3076)">
<path d="M19.5 3.646L18 2.0835L16.5 3.646L15 2.0835L13.5 3.646L12 2.0835L10.5 3.646L9 2.0835L7.5 3.646L6 2.0835L4.5 3.646L3 2.0835V22.9168L4.5 21.3543L6 22.9168L7.5 21.3543L9 22.9168L10.5 21.3543L12 22.9168L13.5 21.3543L15 22.9168L16.5 21.3543L18 22.9168L19.5 21.3543L21 22.9168V2.0835L19.5 3.646ZM19 19.8856H5V5.11475H19V19.8856ZM6 15.6252H18V17.7085H6V15.6252ZM6 11.4585H18V13.5418H6V11.4585ZM6 7.29183H18V9.37516H6V7.29183Z" fill="#314022"/>
</g>
<defs>
<clipPath id="clip0_331_3076">
<rect width="24" height="25" fill="white"/>
</clipPath>
</defs>
</svg>
