<svg width="24" height="25" viewBox="0 0 24 25" fill="none" xmlns="http://www.w3.org/2000/svg">
<g clip-path="url(#clip0_331_3073)">
<path d="M15.55 13.5418C16.3 13.5418 16.96 13.1147 17.3 12.4689L20.88 5.7085C21.25 5.021 20.77 4.16683 20.01 4.16683H5.21L4.27 2.0835H1V4.16683H3L6.6 12.0731L5.25 14.6147C4.52 16.0106 5.48 17.7085 7 17.7085H19V15.6252H7L8.1 13.5418H15.55ZM6.16 6.25016H18.31L15.55 11.4585H8.53L6.16 6.25016ZM7 18.7502C5.9 18.7502 5.01 19.6877 5.01 20.8335C5.01 21.9793 5.9 22.9168 7 22.9168C8.1 22.9168 9 21.9793 9 20.8335C9 19.6877 8.1 18.7502 7 18.7502ZM17 18.7502C15.9 18.7502 15.01 19.6877 15.01 20.8335C15.01 21.9793 15.9 22.9168 17 22.9168C18.1 22.9168 19 21.9793 19 20.8335C19 19.6877 18.1 18.7502 17 18.7502Z" fill="#314022"/>
</g>
<defs>
<clipPath id="clip0_331_3073">
<rect width="24" height="25" fill="white"/>
</clipPath>
</defs>
</svg>
