<svg width="19" height="21" viewBox="0 0 19 21" fill="none" xmlns="http://www.w3.org/2000/svg">
<path fill-rule="evenodd" clip-rule="evenodd" d="M17.0297 7.97452C17.0297 11.2951 14.4024 13.949 11.2079 13.949C8.01331 13.949 5.38604 11.2951 5.38604 7.97452C5.38604 4.6539 8.01331 2 11.2079 2C14.4024 2 17.0297 4.6539 17.0297 7.97452ZM18.0297 7.97452C18.0297 11.8264 14.9754 14.949 11.2079 14.949C9.82917 14.949 8.54601 14.5309 7.47307 13.8119L2.75455 19.256C2.39235 19.6739 1.76084 19.7198 1.34403 19.3586C0.927219 18.9974 0.882953 18.3658 1.24516 17.9479L5.99248 12.4706C4.99016 11.2565 4.38604 9.68764 4.38604 7.97452C4.38604 4.1226 7.44028 1 11.2079 1C14.9754 1 18.0297 4.1226 18.0297 7.97452Z" fill="#314022"/>
<path d="M7.47307 13.8119L7.75142 13.3965L7.38451 13.1507L7.09524 13.4844L7.47307 13.8119ZM2.75455 19.256L3.13239 19.5834L2.75455 19.256ZM1.34403 19.3586L1.01657 19.7364L1.01657 19.7364L1.34403 19.3586ZM1.24516 17.9479L0.867323 17.6204H0.867323L1.24516 17.9479ZM5.99248 12.4706L6.37031 12.7981L6.64734 12.4784L6.37806 12.1523L5.99248 12.4706ZM11.2079 14.449C14.6884 14.449 17.5297 11.5613 17.5297 7.97452H16.5297C16.5297 11.029 14.1164 13.449 11.2079 13.449V14.449ZM4.88604 7.97452C4.88604 11.5613 7.72732 14.449 11.2079 14.449V13.449C8.2993 13.449 5.88604 11.029 5.88604 7.97452H4.88604ZM11.2079 1.5C7.72732 1.5 4.88604 4.38771 4.88604 7.97452H5.88604C5.88604 4.92009 8.2993 2.5 11.2079 2.5V1.5ZM17.5297 7.97452C17.5297 4.38771 14.6884 1.5 11.2079 1.5V2.5C14.1164 2.5 16.5297 4.92009 16.5297 7.97452H17.5297ZM11.2079 15.449C15.262 15.449 18.5297 12.0921 18.5297 7.97452H17.5297C17.5297 11.5608 14.6889 14.449 11.2079 14.449V15.449ZM7.19472 14.2273C8.34687 14.9993 9.72635 15.449 11.2079 15.449V14.449C9.93199 14.449 8.74514 14.0625 7.75142 13.3965L7.19472 14.2273ZM7.09524 13.4844L2.37672 18.9285L3.13239 19.5834L7.8509 14.1394L7.09524 13.4844ZM2.37672 18.9285C2.19455 19.1387 1.87867 19.1603 1.67148 18.9807L1.01657 19.7364C1.643 20.2793 2.59015 20.2091 3.13239 19.5834L2.37672 18.9285ZM1.67148 18.9807C1.46431 18.8012 1.44083 18.4855 1.62299 18.2754L0.867323 17.6204C0.325074 18.246 0.390124 19.1936 1.01657 19.7364L1.67148 18.9807ZM1.62299 18.2754L6.37031 12.7981L5.61465 12.1431L0.867323 17.6204L1.62299 18.2754ZM3.88604 7.97452C3.88604 9.80695 4.53264 11.4877 5.6069 12.7889L6.37806 12.1523C5.44769 11.0253 4.88604 9.56834 4.88604 7.97452H3.88604ZM11.2079 0.5C7.15376 0.5 3.88604 3.85695 3.88604 7.97452H4.88604C4.88604 4.38825 7.72679 1.5 11.2079 1.5V0.5ZM18.5297 7.97452C18.5297 3.85695 15.262 0.5 11.2079 0.5V1.5C14.6889 1.5 17.5297 4.38825 17.5297 7.97452H18.5297Z" fill="#314022"/>
</svg>
