<svg width="16" height="17" viewBox="0 0 16 17" fill="none" xmlns="http://www.w3.org/2000/svg">
<path d="M8 2.14567C9.16 2.14567 10.1 3.12484 10.1 4.33317C10.1 5.5415 9.16 6.52067 8 6.52067C6.84 6.52067 5.9 5.5415 5.9 4.33317C5.9 3.12484 6.84 2.14567 8 2.14567ZM8 11.5207C10.97 11.5207 14.1 13.0415 14.1 13.7082V14.854H1.9V13.7082C1.9 13.0415 5.03 11.5207 8 11.5207ZM8 0.166504C5.79 0.166504 4 2.03109 4 4.33317C4 6.63525 5.79 8.49984 8 8.49984C10.21 8.49984 12 6.63525 12 4.33317C12 2.03109 10.21 0.166504 8 0.166504ZM8 9.5415C5.33 9.5415 0 10.9373 0 13.7082V16.8332H16V13.7082C16 10.9373 10.67 9.5415 8 9.5415Z" fill="#314022"/>
</svg>
