<svg width="73" height="74" viewBox="0 0 73 74" fill="none" xmlns="http://www.w3.org/2000/svg">
<g clip-path="url(#clip0_328_1415)">
<path d="M34.5022 0.487249L31.7499 1.68158C31.2135 1.91576 31.0759 2.56679 31.4574 3.06013C33.5811 5.79694 35.5452 8.09192 37.6001 10.7444C38.1208 11.4158 37.6532 12.2744 36.8103 12.1979L24.6236 11.0754C24.449 11.053 24.2717 11.0813 24.1128 11.1569C23.9539 11.2325 23.8201 11.3522 23.7275 11.5016L13.017 30.0161C12.9444 30.1484 12.9062 30.2968 12.9062 30.4477C12.9062 30.5986 12.9444 30.7471 13.017 30.8794L17.4911 39.4583L21.4929 47.0864C21.6007 47.2861 21.7648 47.4498 21.965 47.5572C22.1651 47.6646 22.3925 47.711 22.6188 47.6906L40.723 45.7609C40.8643 45.7495 41.0007 45.7042 41.1208 45.6289C41.2408 45.5536 41.3409 45.4506 41.4126 45.3284L51.9292 26.6985C52.013 26.5385 52.0479 26.3575 52.0296 26.1779C52.0112 25.9984 51.9405 25.8281 51.826 25.6884C51.8074 25.6649 51.7902 25.6404 51.7744 25.615C50.0667 22.9422 48.8391 20.9532 47.2738 18.5224C46.8234 17.8199 47.366 17.0205 48.1995 17.1595L55.1882 17.773C55.773 17.8089 56.067 17.8261 56.0842 17.5326L56.3219 15.5498C56.3563 14.9644 56.3313 14.9113 55.6573 14.8645L44.0429 13.5031C43.8685 13.4896 43.6994 13.4372 43.5479 13.35C43.3963 13.2627 43.2663 13.1428 43.1672 12.9988C42.623 12.1948 41.6269 10.7116 41.4939 10.4853C39.1482 6.48544 38.1521 4.83211 35.8877 0.969664C35.751 0.738813 35.5369 0.563719 35.2833 0.475416C35.0297 0.387113 34.753 0.391305 34.5022 0.487249ZM29.4057 15.2064L41.4376 16.0978C41.6153 16.112 41.7874 16.1665 41.9408 16.2572C42.0942 16.3478 42.2248 16.4722 42.3228 16.6208C44.3557 19.7433 45.674 22.1304 47.4599 25.0639C47.5487 25.2004 47.5989 25.3584 47.6052 25.5211C47.6115 25.6837 47.5737 25.8451 47.4958 25.9881L38.4054 41.7049C38.3218 41.8423 38.2029 41.9549 38.061 42.0309C37.9191 42.1069 37.7594 42.1437 37.5985 42.1373L27.0741 42.0265C26.877 42.0224 26.6842 41.9685 26.5136 41.87C26.3429 41.7714 26.2001 41.6314 26.0983 41.4629L23.4914 37.054L20.2997 31.2963C20.2214 31.164 20.1784 31.0138 20.1748 30.8602C20.1712 30.7066 20.2072 30.5546 20.2793 30.4189L28.5237 15.6529C28.6127 15.5022 28.7431 15.38 28.8994 15.3009C29.0556 15.2218 29.2313 15.189 29.4057 15.2064Z" fill="#314022"/>
<path d="M69.125 54.9563C69.1923 54.8299 69.2212 54.6867 69.2081 54.5441C69.1951 54.4016 69.1406 54.2659 69.0515 54.1538L69.0108 54.0961C67.6863 51.9822 66.7323 50.4101 65.5173 48.4866C65.436 48.3696 65.392 48.2307 65.391 48.0883C65.3901 47.9458 65.4323 47.8064 65.5121 47.6883C65.5918 47.5702 65.7055 47.4789 65.8381 47.4263C65.9708 47.3738 66.1162 47.3624 66.2554 47.3938L71.749 47.8356C72.2182 47.859 72.4418 47.8715 72.4574 47.6389L72.6576 46.0605C72.6889 45.5921 72.6701 45.5531 72.14 45.5188L63.0058 44.5165C62.8687 44.5074 62.7356 44.467 62.6166 44.3985C62.4976 44.3301 62.3959 44.2353 62.3193 44.1215C61.8971 43.4861 61.123 42.3136 61.0198 42.1356C59.2011 38.9695 58.4285 37.6627 56.6724 34.6059C56.5668 34.4211 56.3976 34.281 56.1962 34.2115C55.9948 34.142 55.7751 34.1479 55.5777 34.2281L53.404 35.1976C53.3055 35.243 53.2189 35.3106 53.1509 35.3951C53.0828 35.4795 53.0353 35.5785 53.012 35.6844C52.9887 35.7902 52.9902 35.9 53.0164 36.0051C53.0427 36.1102 53.0929 36.2079 53.1632 36.2904C54.8161 38.4527 56.3455 40.2637 57.9453 42.3604C58.0385 42.4686 58.0966 42.6025 58.112 42.7443C58.1274 42.8861 58.0994 43.0293 58.0317 43.1549C57.9639 43.2806 57.8596 43.3827 57.7326 43.448C57.6055 43.5132 57.4616 43.5385 57.3198 43.5204L47.7337 42.7133C47.5949 42.6973 47.4545 42.7213 47.329 42.7824C47.2034 42.8436 47.0981 42.9393 47.0253 43.0583L38.465 57.8602C38.4072 57.9652 38.377 58.0831 38.377 58.2029C38.377 58.3227 38.4072 58.4405 38.465 58.5455L41.9273 65.3368L45.0236 71.3881C45.1069 71.5452 45.2355 71.6737 45.3927 71.7572C45.5499 71.8407 45.7285 71.8753 45.9056 71.8565L60.1769 70.1938C60.2888 70.1825 60.3964 70.1449 60.491 70.0841C60.5856 70.0233 60.6644 69.9411 60.7211 69.844L69.125 54.9563ZM58.3738 66.9777C58.3078 67.0868 58.2139 67.1766 58.1019 67.2377C57.9898 67.2989 57.8635 67.3293 57.7358 67.3258L49.4476 67.3102C49.2931 67.309 49.1416 67.2678 49.0078 67.1906C48.8741 67.1135 48.7627 67.003 48.6845 66.8699L46.6609 63.3822L44.1838 58.825C44.1233 58.719 44.0906 58.5993 44.089 58.4773C44.0873 58.3552 44.1167 58.2348 44.1745 58.1271L50.7721 46.3212C50.8426 46.2021 50.9456 46.1054 51.0692 46.0426C51.1927 45.9799 51.3316 45.9536 51.4696 45.9668L60.9353 46.5913C61.0748 46.6015 61.2099 46.6439 61.3301 46.7152C61.4504 46.7864 61.5524 46.8846 61.6281 47.0019C63.2028 49.4671 64.2287 51.3593 65.6142 53.6808C65.683 53.7901 65.7213 53.9157 65.7252 54.0447C65.729 54.1737 65.6983 54.3014 65.6361 54.4146L58.3738 66.9777Z" fill="#314022"/>
<g opacity="0.2">
<path opacity="0.2" d="M34.7342 0.0858138L31.9584 1.3223C31.4173 1.56272 31.2735 2.22624 31.6535 2.72739C33.763 5.48762 35.7194 7.79977 37.7523 10.4741C38.2684 11.1517 37.7914 12.0353 36.9454 11.9557L24.707 10.9222C24.5301 10.9024 24.3511 10.9333 24.191 11.0112C24.031 11.0892 23.8964 11.211 23.8032 11.3625L12.8816 30.2532C12.8081 30.3875 12.7695 30.538 12.7695 30.6911C12.7695 30.8441 12.8081 30.9947 12.8816 31.129L17.3024 39.7969L21.262 47.5015C21.3677 47.7025 21.5312 47.8674 21.7316 47.9748C21.932 48.0822 22.1601 48.1273 22.3864 48.1041L40.5984 45.9855C40.7415 45.9718 40.8792 45.9243 41.0002 45.8469C41.1212 45.7696 41.222 45.6645 41.2943 45.5406L52.0236 26.5422C52.1095 26.3808 52.1462 26.1978 52.1293 26.0158C52.1123 25.8339 52.0424 25.6608 51.9282 25.518L51.8766 25.4446C50.1846 22.7453 48.9679 20.7391 47.4166 18.2849C46.9694 17.5761 47.5214 16.7611 48.3549 16.8923L55.3717 17.4559C55.9613 17.4871 56.2553 17.5027 56.2756 17.2061L56.5336 15.1843C56.5743 14.5895 56.5492 14.5364 55.8721 14.4943L44.2124 13.2125C44.0373 13.2009 43.8673 13.1493 43.7154 13.0616C43.5636 12.9739 43.434 12.8524 43.3367 12.7067C42.7971 11.9058 41.8088 10.407 41.6775 10.1775C39.3536 6.13864 38.3669 4.46814 36.1244 0.568229C35.9899 0.333939 35.7751 0.156075 35.5197 0.0674206C35.2642 -0.0212334 34.9852 -0.0147008 34.7342 0.0858138ZM29.486 15.0735L41.568 15.8697C41.7458 15.8825 41.9182 15.9364 42.0715 16.0272C42.2249 16.1179 42.355 16.2431 42.4515 16.3927C44.4626 19.5401 45.7715 21.9553 47.5417 24.9169C47.6296 25.0564 47.6786 25.2168 47.6835 25.3815C47.6885 25.5462 47.6493 25.7092 47.5699 25.8537L38.3028 41.8811C38.2183 42.0202 38.0984 42.1346 37.9553 42.2125C37.8122 42.2903 37.651 42.329 37.488 42.3245L26.912 42.3026C26.7146 42.3009 26.521 42.2482 26.3501 42.1497C26.1791 42.0513 26.0365 41.9103 25.9362 41.7406L23.3528 37.288L20.1892 31.4725C20.1116 31.3374 20.0697 31.1848 20.0675 31.0291C20.0653 30.8734 20.1029 30.7197 20.1767 30.5826L28.5962 15.5169C28.6874 15.3663 28.8193 15.2444 28.9766 15.1651C29.134 15.0859 29.3105 15.0525 29.486 15.0688V15.0735Z" fill="#314022"/>
</g>
<path d="M34.5022 0.487249L31.7499 1.68158C31.2135 1.91576 31.0759 2.56679 31.4574 3.06013C33.5811 5.79694 35.5452 8.09192 37.6001 10.7444C38.1208 11.4158 37.6532 12.2744 36.8103 12.1979L24.6236 11.0754C24.449 11.053 24.2717 11.0813 24.1128 11.1569C23.9539 11.2325 23.8201 11.3522 23.7275 11.5016L13.017 30.0161C12.9444 30.1484 12.9062 30.2968 12.9062 30.4477C12.9062 30.5986 12.9444 30.7471 13.017 30.8794L17.4911 39.4583L21.4929 47.0864C21.6007 47.2861 21.7648 47.4498 21.965 47.5572C22.1651 47.6646 22.3925 47.711 22.6188 47.6906L40.723 45.7609C40.8643 45.7495 41.0007 45.7042 41.1208 45.6289C41.2408 45.5536 41.3409 45.4506 41.4126 45.3284L51.9292 26.6985C52.013 26.5385 52.0479 26.3575 52.0296 26.1779C52.0112 25.9984 51.9405 25.8281 51.826 25.6884C51.8074 25.6649 51.7902 25.6404 51.7744 25.615C50.0667 22.9422 48.8391 20.9532 47.2738 18.5224C46.8234 17.8199 47.366 17.0205 48.1995 17.1595L55.1882 17.773C55.773 17.8089 56.067 17.8261 56.0842 17.5326L56.3219 15.5498C56.3563 14.9644 56.3313 14.9113 55.6573 14.8645L44.0429 13.5031C43.8685 13.4896 43.6994 13.4372 43.5479 13.35C43.3963 13.2627 43.2663 13.1428 43.1672 12.9988C42.623 12.1948 41.6269 10.7116 41.4939 10.4853C39.1482 6.48544 38.1521 4.83211 35.8877 0.969664C35.751 0.738813 35.5369 0.563719 35.2833 0.475416C35.0297 0.387113 34.753 0.391305 34.5022 0.487249ZM29.4057 15.2064L41.4376 16.0978C41.6153 16.112 41.7874 16.1665 41.9408 16.2572C42.0942 16.3478 42.2248 16.4722 42.3228 16.6208C44.3557 19.7433 45.674 22.1304 47.4599 25.0639C47.5487 25.2004 47.5989 25.3584 47.6052 25.5211C47.6115 25.6837 47.5737 25.8451 47.4958 25.9881L38.4054 41.7049C38.3218 41.8423 38.2029 41.9549 38.061 42.0309C37.9191 42.1069 37.7594 42.1437 37.5985 42.1373L27.0741 42.0265C26.877 42.0224 26.6842 41.9685 26.5136 41.87C26.3429 41.7714 26.2001 41.6314 26.0983 41.4629L23.4914 37.054L20.2997 31.2963C20.2214 31.164 20.1784 31.0138 20.1748 30.8602C20.1712 30.7066 20.2072 30.5546 20.2793 30.4189L28.5237 15.6529C28.6127 15.5022 28.7431 15.38 28.8994 15.3009C29.0556 15.2218 29.2313 15.189 29.4057 15.2064Z" fill="#314022"/>
<g opacity="0.2">
<path opacity="0.2" d="M35.6404 0.977402L33.0007 2.2857C32.8785 2.34508 32.7706 2.43025 32.6846 2.53533C32.5986 2.64041 32.5365 2.76289 32.5026 2.89429C32.4687 3.02569 32.4638 3.16288 32.4882 3.29636C32.5127 3.42985 32.5659 3.55644 32.6441 3.66737C34.4566 6.28553 36.1486 8.47123 37.9048 11.0191C38.0074 11.1635 38.0669 11.3339 38.0765 11.5106C38.0861 11.6874 38.0453 11.8632 37.9589 12.0178C37.8725 12.1724 37.744 12.2993 37.5883 12.384C37.4326 12.4686 37.256 12.5075 37.0791 12.496L25.7728 11.9246C25.6 11.9166 25.4283 11.956 25.2764 12.0386C25.1245 12.1212 24.9981 12.2438 24.9111 12.393L13.7893 31.2509C13.7139 31.3797 13.6699 31.5244 13.6609 31.6733C13.6519 31.8222 13.6782 31.9712 13.7377 32.108L17.3876 40.4262L20.656 47.8138C20.7404 48.0044 20.8855 48.1618 21.0688 48.2615C21.252 48.3612 21.4632 48.3975 21.6693 48.365L38.6804 45.6422C38.819 45.6204 38.9509 45.5678 39.0665 45.4884C39.1821 45.409 39.2783 45.3047 39.3482 45.1832L50.2948 26.2176C50.3839 26.0649 50.4279 25.8903 50.4218 25.7138C50.4157 25.5373 50.3598 25.3661 50.2604 25.2199C50.2448 25.1965 50.2307 25.1731 50.2166 25.1497C48.7873 22.5721 47.763 20.6518 46.4525 18.3069C46.3649 18.1547 46.3219 17.981 46.3283 17.8055C46.3348 17.6301 46.3906 17.46 46.4892 17.3146C46.5878 17.1693 46.7254 17.0545 46.8862 16.9835C47.047 16.9124 47.2245 16.8879 47.3986 16.9127L53.8853 17.214C54.4311 17.2218 54.7032 17.2265 54.7376 16.9361L55.08 14.9565C55.1488 14.3742 55.1285 14.3227 54.5014 14.3039L43.7565 13.4749C43.5971 13.4697 43.4416 13.4239 43.3048 13.3419C43.1679 13.26 43.0543 13.1446 42.9746 13.0066C42.5164 12.226 41.6782 10.8052 41.5672 10.5867C39.6218 6.71955 38.7946 5.12243 36.918 1.388C36.8622 1.27627 36.7846 1.1768 36.6898 1.09544C36.595 1.01407 36.4848 0.952455 36.3658 0.914202C36.2467 0.875949 36.1213 0.861834 35.9967 0.872688C35.8721 0.883541 35.751 0.919143 35.6404 0.977402ZM29.995 15.8089L41.1653 16.1571C41.3279 16.1624 41.4864 16.2094 41.6256 16.2937C41.7647 16.3779 41.8798 16.4965 41.9597 16.6379C43.6596 19.6433 44.7495 21.9586 46.2367 24.7922C46.3115 24.9339 46.3486 25.0925 46.3445 25.2527C46.3404 25.4128 46.2952 25.5693 46.2133 25.707L36.7632 41.7251C36.6835 41.8631 36.5699 41.9785 36.4331 42.0605C36.2962 42.1424 36.1408 42.1882 35.9813 42.1935L26.1684 42.551C25.9883 42.5582 25.8099 42.5134 25.6546 42.422C25.4993 42.3307 25.3736 42.1966 25.2927 42.0358L23.1284 37.7752L20.5012 32.2017C20.4365 32.0647 20.4058 31.9142 20.4115 31.7629C20.4172 31.6116 20.4592 31.4638 20.534 31.3321L29.1349 16.296C29.2187 16.143 29.3435 16.0163 29.4955 15.9302C29.6475 15.8441 29.8205 15.8021 29.995 15.8089Z" fill="#314022"/>
</g>
<path opacity="0.2" d="M69.1869 53.8323C69.2579 53.7068 69.2919 53.5639 69.285 53.42C69.2781 53.276 69.2305 53.137 69.1478 53.0189L69.1102 52.9611C67.9092 50.8629 67.0476 49.3016 65.9467 47.3923C65.8752 47.269 65.8396 47.1282 65.8441 46.9859C65.8485 46.8435 65.8928 46.7052 65.9719 46.5866C66.0509 46.4681 66.1617 46.3739 66.2915 46.3149C66.4214 46.2559 66.5652 46.2343 66.7067 46.2526L72.0236 46.479C72.4709 46.479 72.6945 46.4883 72.7195 46.2495L72.9775 44.6352C73.0276 44.1668 73.0104 44.1184 72.4959 44.1059L63.6682 43.4549C63.537 43.452 63.4086 43.4161 63.2949 43.3506C63.1812 43.2852 63.0859 43.1922 63.0177 43.0802C62.633 42.4557 61.923 41.2879 61.837 41.11C60.1981 37.9625 59.5006 36.6621 57.9196 33.6239C57.8254 33.4422 57.6634 33.3048 57.4686 33.2411C57.2738 33.1775 57.0618 33.1927 56.8781 33.2836L54.7263 34.3577C54.6286 34.4077 54.5429 34.4782 54.4749 34.5642C54.4069 34.6503 54.3583 34.75 54.3323 34.8565C54.3063 34.963 54.3037 35.0738 54.3244 35.1814C54.3452 35.2891 54.3889 35.391 54.4527 35.4802C55.9696 37.6128 57.3817 39.3957 58.8501 41.4628C58.9344 41.5794 58.984 41.7174 58.9931 41.861C59.0021 42.0045 58.9703 42.1477 58.9013 42.2739C58.8322 42.4002 58.7288 42.5043 58.603 42.5743C58.4771 42.6443 58.334 42.6774 58.1902 42.6696L48.9168 42.2403C48.7761 42.233 48.6362 42.2645 48.5123 42.3315C48.3885 42.3984 48.2855 42.4981 48.2147 42.6196L39.301 58.0304C39.2404 58.136 39.2058 58.2546 39.2001 58.3762C39.1944 58.4978 39.2177 58.619 39.2681 58.7298L42.3488 65.5008L45.1121 71.5224C45.1835 71.6781 45.3043 71.806 45.4558 71.8864C45.6073 71.9668 45.781 71.9953 45.9503 71.9674L59.8681 69.702C59.9812 69.6837 60.0887 69.6404 60.1828 69.5753C60.277 69.5102 60.3554 69.425 60.4123 69.3258L69.1869 53.8323ZM58.259 66.5047C58.1942 66.6163 58.1021 66.7098 57.9914 66.7764C57.8806 66.8431 57.7548 66.8806 57.6256 66.8856L49.5814 67.1978C49.4336 67.2039 49.2871 67.1679 49.1589 67.0941C49.0308 67.0203 48.9262 66.9118 48.8574 66.781L47.0402 63.3182L44.8181 58.7813C44.7635 58.6702 44.7368 58.5476 44.74 58.4239C44.7433 58.3002 44.7765 58.1791 44.8368 58.071L51.7176 45.7889C51.786 45.6669 51.8866 45.566 52.0085 45.4972C52.1303 45.4283 52.2688 45.3942 52.4088 45.3986L61.5836 45.6531C61.717 45.6567 61.8472 45.6943 61.9619 45.7624C62.0766 45.8304 62.1719 45.9266 62.2389 46.0418C63.6682 48.4883 64.5846 50.3726 65.8356 52.6786C65.898 52.7934 65.9299 52.9223 65.9283 53.0529C65.9266 53.1835 65.8915 53.3116 65.8262 53.4248L58.259 66.5047Z" fill="#314022"/>
<path d="M23.056 61.9364C23.1038 61.8423 23.1227 61.7362 23.1101 61.6315C23.0976 61.5267 23.0543 61.428 22.9856 61.3478L22.9543 61.3041C21.9222 59.7351 21.1794 58.5673 20.2333 57.1388C19.9612 56.7282 20.2756 56.2661 20.7697 56.3582L24.9091 56.7735C25.2563 56.8 25.4299 56.8125 25.4377 56.6423L25.5612 55.4902C25.5769 55.1498 25.5612 55.1186 25.1624 55.0843L18.2817 54.1959C18.1781 54.1867 18.0777 54.1552 17.9875 54.1034C17.8973 54.0516 17.8195 53.9809 17.7594 53.8962C17.4326 53.4278 16.8305 52.552 16.7492 52.4193C15.3277 50.0774 14.7256 49.1017 13.3541 46.8348C13.2717 46.6981 13.1445 46.594 12.994 46.5402C12.8435 46.4864 12.6791 46.4863 12.5285 46.5397L10.9177 47.2079C10.605 47.3391 10.5252 47.7169 10.7614 48.0073C12.039 49.6169 13.2197 50.9736 14.4582 52.5348C14.5314 52.6115 14.5783 52.7094 14.5923 52.8144C14.6063 52.9193 14.5866 53.0261 14.536 53.1192C14.4855 53.2123 14.4067 53.2871 14.311 53.3327C14.2152 53.3783 14.1074 53.3925 14.0031 53.3732L6.78304 52.6207C6.68152 52.6053 6.57771 52.6198 6.48436 52.6625C6.39101 52.7052 6.3122 52.7743 6.2576 52.8611L0.0633691 63.546C0.0199144 63.6224 -0.00292969 63.7088 -0.00292969 63.7966C-0.00292969 63.8845 0.0199144 63.9708 0.0633691 64.0472L2.78595 69.0774L5.21767 73.5503C5.28331 73.6681 5.38138 73.7647 5.50027 73.8286C5.61916 73.8925 5.7539 73.9211 5.88854 73.9109L16.5818 72.9383C16.6643 72.9336 16.7442 72.9086 16.8146 72.8656C16.885 72.8225 16.9437 72.7628 16.9853 72.6916L23.056 61.9364ZM15.1791 70.5559C15.1301 70.635 15.0607 70.6995 14.9782 70.7426C14.8956 70.7858 14.803 70.8059 14.71 70.801L8.48446 70.6449C8.36703 70.6413 8.25231 70.6089 8.15053 70.5503C8.04875 70.4917 7.96308 70.4089 7.90116 70.3092L6.32172 67.7223L4.3826 64.3454C4.33528 64.2693 4.30866 64.1821 4.30537 64.0926C4.30208 64.0031 4.32223 63.9142 4.36383 63.8349L9.1178 55.3075C9.17065 55.2205 9.24773 55.1506 9.33964 55.1066C9.43155 55.0625 9.53432 55.046 9.63542 55.0593L16.7601 55.6838C16.8658 55.6939 16.9679 55.7272 17.0592 55.7812C17.1505 55.8351 17.2289 55.9085 17.2887 55.996C18.5131 57.8273 19.3216 59.2293 20.3975 60.9513C20.451 61.03 20.4818 61.1218 20.4868 61.2167C20.4917 61.3116 20.4706 61.4061 20.4257 61.4899L15.1791 70.5559Z" fill="#314022"/>
<path opacity="0.2" d="M23.0837 61.1153C23.1339 61.022 23.1564 60.9164 23.1487 60.8108C23.1409 60.7051 23.1032 60.6039 23.0399 60.5189C23.0291 60.505 23.0192 60.4904 23.0102 60.4752C22.0719 58.914 21.3979 57.7618 20.5378 56.3458C20.4808 56.2574 20.4509 56.1542 20.4519 56.0491C20.4529 55.9439 20.4847 55.8414 20.5434 55.754C20.6021 55.6667 20.6851 55.5985 20.7822 55.5577C20.8793 55.5169 20.9863 55.5054 21.0898 55.5246L25.0916 55.776C25.4278 55.7885 25.5967 55.7931 25.6108 55.6198L25.7781 54.4427C25.8078 54.0961 25.7937 54.0649 25.4075 54.0461L18.7597 53.4217C18.6607 53.4168 18.5643 53.3885 18.4783 53.3391C18.3924 53.2897 18.3195 53.2206 18.2656 53.1375C17.9653 52.6691 17.4164 51.8074 17.3445 51.6747C16.0591 49.3438 15.5133 48.3805 14.2732 46.1277C14.1988 45.9927 14.0763 45.8906 13.9301 45.8415C13.7839 45.7923 13.6245 45.7997 13.4835 45.8623L11.8853 46.6116C11.8124 46.6466 11.7483 46.6976 11.6977 46.7607C11.6472 46.8237 11.6115 46.8974 11.5934 46.9761C11.5752 47.0548 11.575 47.1365 11.5928 47.2153C11.6105 47.2941 11.6458 47.3679 11.696 47.4313C12.872 49.019 13.9651 50.3476 15.1036 51.887C15.1697 51.9699 15.2098 52.0705 15.2189 52.1761C15.228 52.2817 15.2057 52.3876 15.1548 52.4806C15.1039 52.5736 15.0266 52.6496 14.9326 52.6989C14.8387 52.7483 14.7322 52.7689 14.6266 52.7581L7.64735 52.282C7.54426 52.2736 7.44088 52.2942 7.34886 52.3414C7.25685 52.3885 7.17987 52.4604 7.1266 52.5489L0.691545 63.682C0.64758 63.7595 0.623438 63.8466 0.621256 63.9356C0.619074 64.0247 0.638918 64.1129 0.679034 64.1925L3.11388 69.2024L5.28757 73.655C5.34541 73.7704 5.43767 73.8651 5.55165 73.9261C5.66563 73.987 5.79572 74.0112 5.92404 73.9953L16.3484 72.5731C16.4313 72.5628 16.5108 72.5335 16.5805 72.4875C16.6503 72.4414 16.7084 72.3799 16.7503 72.3077L23.0837 61.1153ZM15.0848 70.2063C15.0366 70.2877 14.968 70.3551 14.8857 70.4019C14.8035 70.4488 14.7104 70.4733 14.6157 70.4732L8.57469 70.5716C8.46314 70.5734 8.35314 70.5454 8.25608 70.4905C8.15902 70.4356 8.07843 70.3558 8.02266 70.2593L6.59491 67.6896L4.84814 64.3236C4.80503 64.244 4.78245 64.1549 4.78245 64.0644C4.78245 63.974 4.80503 63.8849 4.84814 63.8053L9.8226 54.9313C9.8739 54.8424 9.94918 54.7697 10.0399 54.7214C10.1305 54.6731 10.233 54.6512 10.3355 54.6581L17.2241 54.9954C17.3251 55.0009 17.4232 55.0307 17.5101 55.0824C17.597 55.134 17.67 55.206 17.7229 55.292C18.8395 57.1061 19.562 58.5018 20.5378 60.2114C20.5861 60.2943 20.6116 60.3886 20.6116 60.4846C20.6116 60.5806 20.5861 60.6748 20.5378 60.7578L15.0848 70.2063Z" fill="#314022"/>
</g>
<defs>
<clipPath id="clip0_328_1415">
<rect width="73" height="74" fill="white"/>
</clipPath>
</defs>
</svg>
