<svg width="19" height="20" viewBox="0 0 19 20" fill="none" xmlns="http://www.w3.org/2000/svg">
<path fill-rule="evenodd" clip-rule="evenodd" d="M16.5297 7.47452C16.5297 10.7951 13.9024 13.449 10.7079 13.449C7.51331 13.449 4.88604 10.7951 4.88604 7.47452C4.88604 4.1539 7.51331 1.5 10.7079 1.5C13.9024 1.5 16.5297 4.1539 16.5297 7.47452ZM17.5297 7.47452C17.5297 11.3264 14.4754 14.449 10.7079 14.449C9.32917 14.449 8.04601 14.0309 6.97307 13.3119L2.25455 18.756C1.89235 19.1739 1.26084 19.2198 0.844027 18.8586C0.427219 18.4974 0.382953 17.8658 0.745157 17.4479L5.49248 11.9706C4.49016 10.7565 3.88604 9.18764 3.88604 7.47452C3.88604 3.6226 6.94028 0.5 10.7079 0.5C14.4754 0.5 17.5297 3.6226 17.5297 7.47452Z" fill="#314022"/>
<path d="M6.97307 13.3119L7.25142 12.8965L6.88451 12.6507L6.59524 12.9844L6.97307 13.3119ZM2.25455 18.756L2.63239 19.0834V19.0834L2.25455 18.756ZM0.844027 18.8586L0.51657 19.2364L0.516571 19.2364L0.844027 18.8586ZM0.745157 17.4479L0.367323 17.1204H0.367323L0.745157 17.4479ZM5.49248 11.9706L5.87031 12.2981L6.14734 11.9784L5.87806 11.6523L5.49248 11.9706ZM10.7079 13.949C14.1884 13.949 17.0297 11.0613 17.0297 7.47452H16.0297C16.0297 10.529 13.6164 12.949 10.7079 12.949V13.949ZM4.38604 7.47452C4.38604 11.0613 7.22732 13.949 10.7079 13.949V12.949C7.7993 12.949 5.38604 10.529 5.38604 7.47452H4.38604ZM10.7079 1C7.22732 1 4.38604 3.88771 4.38604 7.47452H5.38604C5.38604 4.42009 7.7993 2 10.7079 2V1ZM17.0297 7.47452C17.0297 3.88771 14.1884 1 10.7079 1V2C13.6164 2 16.0297 4.42009 16.0297 7.47452H17.0297ZM10.7079 14.949C14.762 14.949 18.0297 11.5921 18.0297 7.47452H17.0297C17.0297 11.0608 14.1889 13.949 10.7079 13.949V14.949ZM6.69472 13.7273C7.84687 14.4993 9.22635 14.949 10.7079 14.949V13.949C9.43199 13.949 8.24514 13.5625 7.25142 12.8965L6.69472 13.7273ZM6.59524 12.9844L1.87672 18.4285L2.63239 19.0834L7.3509 13.6394L6.59524 12.9844ZM1.87672 18.4285C1.69455 18.6387 1.37867 18.6603 1.17148 18.4807L0.516571 19.2364C1.143 19.7793 2.09015 19.7091 2.63239 19.0834L1.87672 18.4285ZM1.17148 18.4807C0.964313 18.3012 0.940832 17.9855 1.12299 17.7754L0.367323 17.1204C-0.174926 17.746 -0.109876 18.6936 0.51657 19.2364L1.17148 18.4807ZM1.12299 17.7754L5.87031 12.2981L5.11465 11.6431L0.367323 17.1204L1.12299 17.7754ZM3.38604 7.47452C3.38604 9.30695 4.03264 10.9877 5.1069 12.2889L5.87806 11.6523C4.94769 10.5253 4.38604 9.06834 4.38604 7.47452H3.38604ZM10.7079 0C6.65376 0 3.38604 3.35695 3.38604 7.47452H4.38604C4.38604 3.88825 7.22679 1 10.7079 1V0ZM18.0297 7.47452C18.0297 3.35695 14.762 0 10.7079 0V1C14.1889 1 17.0297 3.88825 17.0297 7.47452H18.0297Z" fill="#314022"/>
</svg>
