<svg width="24" height="25" viewBox="0 0 24 25" fill="none" xmlns="http://www.w3.org/2000/svg">
<g clip-path="url(#clip0_331_3305)">
<path d="M12 6.14567C13.16 6.14567 14.1 7.12484 14.1 8.33317C14.1 9.5415 13.16 10.5207 12 10.5207C10.84 10.5207 9.9 9.5415 9.9 8.33317C9.9 7.12484 10.84 6.14567 12 6.14567ZM12 15.5207C14.97 15.5207 18.1 17.0415 18.1 17.7082V18.854H5.9V17.7082C5.9 17.0415 9.03 15.5207 12 15.5207ZM12 4.1665C9.79 4.1665 8 6.03109 8 8.33317C8 10.6353 9.79 12.4998 12 12.4998C14.21 12.4998 16 10.6353 16 8.33317C16 6.03109 14.21 4.1665 12 4.1665ZM12 13.5415C9.33 13.5415 4 14.9373 4 17.7082V20.8332H20V17.7082C20 14.9373 14.67 13.5415 12 13.5415Z" fill="#314022"/>
</g>
<defs>
<clipPath id="clip0_331_3305">
<rect width="24" height="25" fill="white"/>
</clipPath>
</defs>
</svg>
